<svg width="37" height="41" viewBox="0 0 37 41" fill="none" xmlns="http://www.w3.org/2000/svg">
<path d="M0 0.676025H6.52941C7.13882 0.676025 7.68294 0.905199 8.07471 1.28021L12.6018 5.63451L14.3429 3.98862C15.2353 3.1761 16.3235 2.75942 17.4118 2.75942H30.4706C31.5588 2.75942 32.6471 3.1761 33.5394 3.98862L35.7159 6.07202C36.5647 6.92621 37 7.96791 37 9.00961V36.0938C37 37.1988 36.5414 38.2587 35.7251 39.0401C34.9087 39.8215 33.8015 40.2605 32.6471 40.2605H10.8824C9.72788 40.2605 8.62069 39.8215 7.80436 39.0401C6.98802 38.2587 6.52941 37.1988 6.52941 36.0938V13.1764C6.52941 12.1347 6.96471 11.093 7.81353 10.2388L9.53294 8.57209L5.63706 4.84282H0V0.676025ZM17.4118 6.92621V11.093H30.4706V6.92621H17.4118ZM18.3041 19.4266L13.9512 15.2598H10.8824V18.1974L15.2353 22.3642V28.9894L10.8824 33.1562V36.0938H13.9512L18.3041 31.927H25.2253L29.5782 36.0938H32.6471V33.1562L28.2941 28.9894V22.3642L32.6471 18.1974V15.2598H29.5782L25.2253 19.4266H18.3041ZM19.5882 23.5934H23.9412V27.7602H19.5882V23.5934Z" fill="#3A3A3A"/>
</svg>
