<svg width="43" height="38" viewBox="0 0 43 38" fill="none" xmlns="http://www.w3.org/2000/svg">
<path d="M5.5201 4.28564H36.4068L38.968 13.1759H41.2285V24.7208H38.6295L33.2431 37H7.70434L2.80804 25.3543H1V12.0456H2.80804L5.5201 4.28564Z" fill="white"/>
<path d="M12.7523 19.1149C15.4153 19.1149 17.574 16.9561 17.574 14.2932C17.574 11.6302 15.4153 9.47144 12.7523 9.47144C10.0894 9.47144 7.9306 11.6302 7.9306 14.2932C7.9306 16.9561 10.0894 19.1149 12.7523 19.1149Z" fill="white"/>
<path d="M14.4095 31.4063C16.24 31.4063 17.724 29.9223 17.724 28.0918C17.724 26.2613 16.24 24.7773 14.4095 24.7773C12.579 24.7773 11.095 26.2613 11.095 28.0918C11.095 29.9223 12.579 31.4063 14.4095 31.4063Z" fill="white"/>
<path d="M28.2707 26.2579C31.824 26.2579 34.7045 23.3773 34.7045 19.824C34.7045 16.2707 31.824 13.3901 28.2707 13.3901C24.7173 13.3901 21.8368 16.2707 21.8368 19.824C21.8368 23.3773 24.7173 26.2579 28.2707 26.2579Z" fill="white"/>
<path d="M8.95099 3.36701C8.95099 2.05974 9.91402 1 11.1024 1C12.2909 1 13.2539 2.06056 13.2539 3.36701M15.4053 3.36701C15.4053 2.05974 16.3684 1 17.5568 1C18.7452 1 19.7083 2.05974 19.7083 3.36701M21.8597 3.36701C21.8597 2.05974 22.8227 1 24.0112 1C25.1996 1 26.1626 2.05974 26.1626 3.36701M28.3141 3.36701C28.3141 2.05974 29.2771 1 30.4655 1C31.6539 1 32.617 2.05974 32.617 3.36701" fill="white"/>
<path d="M5.5201 4.28491H36.4068L38.968 13.1751H41.2285V24.72H38.6295L33.2431 36.9993H7.70434L2.80804 25.3536H1V12.0449H2.80804L5.5201 4.28491Z" stroke="#3A3A3A" stroke-width="2" stroke-miterlimit="10" stroke-linecap="round" stroke-linejoin="round"/>
<path d="M12.7523 19.1149C15.4153 19.1149 17.574 16.9561 17.574 14.2932C17.574 11.6302 15.4153 9.47144 12.7523 9.47144C10.0894 9.47144 7.9306 11.6302 7.9306 14.2932C7.9306 16.9561 10.0894 19.1149 12.7523 19.1149Z" stroke="#3A3A3A" stroke-width="2" stroke-miterlimit="10" stroke-linecap="round" stroke-linejoin="round"/>
<path d="M14.4095 31.4053C16.24 31.4053 17.724 29.9214 17.724 28.0908C17.724 26.2603 16.24 24.7764 14.4095 24.7764C12.579 24.7764 11.095 26.2603 11.095 28.0908C11.095 29.9214 12.579 31.4053 14.4095 31.4053Z" stroke="#3A3A3A" stroke-width="2" stroke-miterlimit="10" stroke-linecap="round" stroke-linejoin="round"/>
<path d="M28.2706 26.2579C31.8239 26.2579 34.7044 23.3773 34.7044 19.824C34.7044 16.2707 31.8239 13.3901 28.2706 13.3901C24.7172 13.3901 21.8367 16.2707 21.8367 19.824C21.8367 23.3773 24.7172 26.2579 28.2706 26.2579Z" stroke="#3A3A3A" stroke-width="2" stroke-miterlimit="10" stroke-linecap="round" stroke-linejoin="round"/>
<path d="M12.7523 9.4714L28.2707 13.3899M7.9306 14.2931C7.9306 14.2931 9.77635 26.5847 11.0943 29.4098C12.4122 32.235 14.4096 31.4056 14.4096 31.4056C17.724 31.1048 31.5474 25.3536 31.5474 25.3536M8.95101 3.36701C8.95101 2.05975 9.91404 1 11.1025 1C12.2909 1 13.2539 2.06056 13.2539 3.36701M15.4054 3.36701C15.4054 2.05975 16.3684 1 17.5568 1C18.7452 1 19.7083 2.05975 19.7083 3.36701M21.8597 3.36701C21.8597 2.05975 22.8228 1 24.0112 1C25.1996 1 26.1626 2.05975 26.1626 3.36701M28.3141 3.36701C28.3141 2.05975 29.2771 1 30.4655 1C31.654 1 32.617 2.05975 32.617 3.36701" stroke="#3A3A3A" stroke-width="2" stroke-miterlimit="10" stroke-linecap="round" stroke-linejoin="round"/>
</svg>
