<svg width="45" height="37" viewBox="0 0 45 37" fill="none" xmlns="http://www.w3.org/2000/svg">
<path d="M19.0125 26.2407C19.95 27.1685 21.1312 27.6049 22.5562 27.55C23.9812 27.4951 25.0125 26.9844 25.65 26.0181L38.25 7.31441L19.35 19.7835C18.375 20.4515 17.841 21.4624 17.748 22.8162C17.655 24.17 18.0765 25.3115 19.0125 26.2407ZM6.975 36.2606C6.15 36.2606 5.391 36.0839 4.698 35.7306C4.005 35.3773 3.4515 34.8489 3.0375 34.1453C2.0625 32.4011 1.3125 30.5923 0.7875 28.719C0.2625 26.8456 0 24.9063 0 22.9008C0 19.8206 0.591 16.926 1.773 14.217C2.955 11.5079 4.55775 9.15137 6.58125 7.14741C8.60475 5.14344 10.986 3.55734 13.725 2.3891C16.464 1.22087 19.389 0.636006 22.5 0.634521C25.575 0.634521 28.4625 1.20973 31.1625 2.36016C33.8625 3.51058 36.225 5.07887 38.25 7.06502C40.275 9.05118 41.8875 11.3706 43.0875 14.0232C44.2875 16.6759 44.9062 19.5238 44.9437 22.5668C44.9812 24.6079 44.7472 26.6029 44.2417 28.552C43.7362 30.501 42.9577 32.3655 41.9062 34.1453C41.4937 34.8504 40.941 35.3796 40.248 35.7329C39.555 36.0862 38.7945 36.2621 37.9665 36.2606H6.975Z" fill="#3A3A3A"/>
</svg>
